<svg  viewBox="0 0 24 24" fill="none" xmlns="http://www.w3.org/2000/svg">
<path d="M14.5947 3.32324C15.7686 2.99124 17.0168 3.0309 18.167 3.4375C19.3172 3.84412 20.3131 4.59767 21.0176 5.59375C21.722 6.58985 22.1005 7.77997 22.1006 9C22.1006 12.6559 19.4927 15.6419 17.2646 17.5625L17.2637 17.5645C15.8507 18.7717 14.3161 19.829 12.6855 20.7207L12.6787 20.7246L12.6621 20.7324L12.5557 20.7979H12.5215C12.3565 20.865 12.1799 20.9011 12.001 20.9014C11.7755 20.9016 11.5531 20.8472 11.3535 20.7422V20.7412L11.3428 20.7363L11.3398 20.7344L11.3223 20.7246L11.3164 20.7217C10.8337 20.459 10.3592 20.1811 9.89453 19.8877C8.78723 19.191 7.73185 18.4144 6.7373 17.5645L6.73535 17.5625C4.50878 15.642 1.90039 12.6558 1.90039 9L1.90527 8.77148C1.94955 7.63189 2.323 6.52755 2.9834 5.59375C3.68785 4.59771 4.68375 3.84411 5.83398 3.4375C6.98421 3.03093 8.23234 2.9912 9.40625 3.32324C10.3925 3.60223 11.2849 4.13336 12 4.8584C12.7152 4.13316 13.6083 3.60228 14.5947 3.32324Z" fill="#FF1659" stroke="white"/>
</svg>
